<svg width="612" height="61" viewBox="0 0 612 61" fill="none" xmlns="http://www.w3.org/2000/svg">
<path d="M25.591 19.5937C24.2024 18.1956 22.5509 17.0863 20.7315 16.3295C18.9122 15.5728 16.9611 15.1837 14.9906 15.1846C6.69794 15.1846 0 21.9013 0 30.194C0 38.4867 6.69794 45.2034 14.9906 45.2034C21.9887 45.2034 27.8236 40.4192 29.4934 33.9464H25.591C24.8181 36.1406 23.3834 38.0409 21.4847 39.3851C19.586 40.7293 17.317 41.4511 14.9906 41.4511C8.78049 41.4511 3.73358 36.4042 3.73358 30.194C3.73358 23.9839 8.78049 18.937 14.9906 18.937C18.1051 18.937 20.8818 20.2316 22.9081 22.2766L16.8668 28.3179H30V15.1846L25.591 19.5937Z" fill="url(#paint0_linear_1_168)"/>
<path d="M200 0.194031C205.933 0.194031 211.734 1.9535 216.667 5.24994C221.601 8.54638 225.446 13.2317 227.716 18.7135C229.987 24.1953 230.581 30.2273 229.424 36.0467C228.266 41.8662 225.409 47.2116 221.213 51.4072C217.018 55.6028 211.672 58.46 205.853 59.6176C200.033 60.7751 194.001 60.181 188.519 57.9104C183.038 55.6398 178.352 51.7946 175.056 46.8611C171.759 41.9277 170 36.1275 170 30.194C170.015 22.2423 173.181 14.6206 178.804 8.99789C184.427 3.37515 192.048 0.209481 200 0.194031ZM190.366 31.8956L201.905 42.2802C202.332 42.6651 202.886 42.8806 203.462 42.8863C203.782 42.8876 204.099 42.8214 204.392 42.6921C204.685 42.5627 204.948 42.3731 205.163 42.1356C205.368 41.912 205.527 41.6502 205.63 41.3652C205.734 41.0803 205.78 40.7777 205.767 40.4748C205.753 40.1719 205.68 39.8747 205.552 39.6C205.423 39.3253 205.242 39.0786 205.018 38.874L195.385 30.194L205.018 21.511C205.446 21.0922 205.694 20.5237 205.71 19.9255C205.727 19.3274 205.51 18.7462 205.106 18.3047C204.702 17.8633 204.142 17.596 203.545 17.5592C202.948 17.5225 202.36 17.7192 201.905 18.1079L190.366 28.4925C190.13 28.7087 189.942 28.9716 189.813 29.2645C189.684 29.5574 189.617 29.874 189.617 30.194C189.617 30.5141 189.684 30.8306 189.813 31.1235C189.942 31.4165 190.13 31.6794 190.366 31.8956Z" fill="url(#paint1_linear_1_168)"/>
<path d="M281.259 39.0776C279.793 39.0719 278.531 38.7111 277.474 37.9952C276.423 37.2793 275.614 36.2423 275.045 34.8844C274.483 33.5264 274.205 31.8929 274.21 29.9838C274.21 28.0804 274.491 26.4582 275.054 25.1173C275.622 23.7764 276.432 22.7565 277.483 22.0577C278.54 21.3531 279.798 21.0008 281.259 21.0008C282.719 21.0008 283.974 21.3531 285.026 22.0577C286.082 22.7622 286.895 23.7849 287.463 25.1258C288.031 26.4611 288.313 28.0804 288.307 29.9838C288.307 31.8986 288.023 33.5349 287.455 34.8929C286.892 36.2508 286.085 37.2878 285.034 38.0037C283.983 38.7196 282.724 39.0776 281.259 39.0776ZM281.259 36.0179C282.259 36.0179 283.057 35.5151 283.653 34.5094C284.25 33.5037 284.545 31.9952 284.54 29.9838C284.54 28.6599 284.403 27.5577 284.131 26.677C283.864 25.7963 283.483 25.1344 282.989 24.6912C282.5 24.248 281.923 24.0264 281.259 24.0264C280.264 24.0264 279.469 24.5236 278.872 25.5179C278.276 26.5122 277.974 28.0008 277.969 29.9838C277.969 31.3247 278.102 32.444 278.369 33.3418C278.642 34.2338 279.026 34.9043 279.52 35.3531C280.014 35.7963 280.594 36.0179 281.259 36.0179ZM298.532 21.2395V38.694H294.842V24.7423H294.739L290.742 27.248V23.9753L295.063 21.2395H298.532ZM310.317 20.4213L304.692 41.319H301.564L307.189 20.4213H310.317ZM319.626 21.2395V38.694H315.935V24.7423H315.833L311.836 27.248V23.9753L316.157 21.2395H319.626ZM330.618 39.0776C329.152 39.0719 327.891 38.7111 326.834 37.9952C325.783 37.2793 324.973 36.2423 324.405 34.8844C323.842 33.5264 323.564 31.8929 323.57 29.9838C323.57 28.0804 323.851 26.4582 324.413 25.1173C324.982 23.7764 325.791 22.7565 326.842 22.0577C327.899 21.3531 329.158 21.0008 330.618 21.0008C332.078 21.0008 333.334 21.3531 334.385 22.0577C335.442 22.7622 336.254 23.7849 336.822 25.1258C337.391 26.4611 337.672 28.0804 337.666 29.9838C337.666 31.8986 337.382 33.5349 336.814 34.8929C336.251 36.2508 335.445 37.2878 334.393 38.0037C333.342 38.7196 332.084 39.0776 330.618 39.0776ZM330.618 36.0179C331.618 36.0179 332.416 35.5151 333.013 34.5094C333.609 33.5037 333.905 31.9952 333.899 29.9838C333.899 28.6599 333.763 27.5577 333.49 26.677C333.223 25.7963 332.842 25.1344 332.348 24.6912C331.859 24.248 331.283 24.0264 330.618 24.0264C329.624 24.0264 328.828 24.5236 328.232 25.5179C327.635 26.5122 327.334 28.0008 327.328 29.9838C327.328 31.3247 327.462 32.444 327.729 33.3418C328.001 34.2338 328.385 34.9043 328.879 35.3531C329.374 35.7963 329.953 36.0179 330.618 36.0179Z" fill="#202B37"/>
<path d="M412 0.194031C406.067 0.194031 400.266 1.9535 395.333 5.24994C390.399 8.54638 386.554 13.2317 384.284 18.7135C382.013 24.1953 381.419 30.2273 382.576 36.0467C383.734 41.8662 386.591 47.2116 390.787 51.4072C394.982 55.6028 400.328 58.46 406.147 59.6176C411.967 60.7751 417.999 60.181 423.481 57.9104C428.962 55.6398 433.648 51.7946 436.944 46.8611C440.241 41.9277 442 36.1275 442 30.194C441.985 22.2423 438.819 14.6206 433.196 8.99789C427.573 3.37515 419.952 0.209481 412 0.194031ZM421.634 31.8956L410.095 42.2802C409.668 42.6651 409.114 42.8806 408.538 42.8863C408.218 42.8876 407.901 42.8214 407.608 42.6921C407.315 42.5627 407.052 42.3731 406.837 42.1356C406.632 41.912 406.473 41.6502 406.37 41.3652C406.266 41.0803 406.22 40.7777 406.233 40.4748C406.247 40.1719 406.32 39.8747 406.448 39.6C406.577 39.3253 406.758 39.0786 406.982 38.874L416.615 30.194L406.982 21.511C406.554 21.0922 406.306 20.5237 406.29 19.9255C406.273 19.3274 406.49 18.7462 406.894 18.3047C407.298 17.8633 407.858 17.596 408.455 17.5592C409.052 17.5225 409.64 17.7192 410.095 18.1079L421.634 28.4925C421.87 28.7087 422.058 28.9716 422.187 29.2645C422.316 29.5574 422.383 29.874 422.383 30.194C422.383 30.5141 422.316 30.8306 422.187 31.1235C422.058 31.4165 421.87 31.6794 421.634 31.8956Z" fill="url(#paint2_linear_1_168)"/>
<path fill-rule="evenodd" clip-rule="evenodd" d="M586.286 25.9083H582V15.194H592.714V19.4797H586.286V25.9083ZM582 34.4797H586.286V40.9083H592.714V45.194H582V34.4797ZM607.714 40.9083H601.286V45.194H612V34.4797H607.714V40.9083ZM601.286 19.4797V15.194H612V25.9083H607.714V19.4797H601.286Z" fill="url(#paint3_linear_1_168)"/>
<defs>
<linearGradient id="paint0_linear_1_168" x1="15" y1="15.1846" x2="15" y2="45.2034" gradientUnits="userSpaceOnUse">
<stop stop-color="#06286E"/>
<stop offset="1" stop-color="#164EC0"/>
</linearGradient>
<linearGradient id="paint1_linear_1_168" x1="200" y1="0.194031" x2="200" y2="60.194" gradientUnits="userSpaceOnUse">
<stop stop-color="#06286E"/>
<stop offset="1" stop-color="#164EC0"/>
</linearGradient>
<linearGradient id="paint2_linear_1_168" x1="412" y1="0.194031" x2="412" y2="60.194" gradientUnits="userSpaceOnUse">
<stop stop-color="#06286E"/>
<stop offset="1" stop-color="#164EC0"/>
</linearGradient>
<linearGradient id="paint3_linear_1_168" x1="597" y1="15.194" x2="597" y2="45.194" gradientUnits="userSpaceOnUse">
<stop stop-color="#06286E"/>
<stop offset="1" stop-color="#164EC0"/>
</linearGradient>
</defs>
</svg>
